<svg viewBox="0 0 100 100" xml:space="preserve" xmlns="http://www.w3.org/2000/svg"><g fill="#ffffff" class="fill-3c5a9b"><path d="M49.859 3.971c-25.353 0-45.978 20.625-45.978 45.978s20.625 45.978 45.978 45.978c25.352 0 45.977-20.625 45.977-45.978S75.211 3.971 49.859 3.971zm0 89.955c-24.25 0-43.978-19.728-43.978-43.978S25.609 5.971 49.859 5.971c24.249 0 43.977 19.728 43.977 43.978S74.108 93.926 49.859 93.926z"></path><path d="M64.343 22.212h-8.818c-7.194 0-13.272 6.837-13.272 14.931v3.25h-7.001a1 1 0 0 0-1 1v10.91a1 1 0 0 0 1 1h7.001v23.625a1 1 0 0 0 1 1h10.182a1 1 0 0 0 1-1V53.304h9.909a1 1 0 0 0 1-1v-10.91a1 1 0 0 0-1-1h-9.909v-3.345c0-1.272.764-1.928 1.09-1.928h8.818a1 1 0 0 0 1-1V23.212a1 1 0 0 0-1-1zm-1 10.909h-7.818c-1.492 0-3.09 1.578-3.09 3.928v4.345a1 1 0 0 0 1 1h9.909v8.91h-9.909a1 1 0 0 0-1 1v23.625h-8.182V52.304a1 1 0 0 0-1-1h-7.001v-8.91h7.001a1 1 0 0 0 1-1v-4.25c0-7.009 5.162-12.931 11.272-12.931h7.818v8.908z"></path></g></svg>